STARTFONT 2.1
FONT -WRI-Mathematica5-Medium-R-Normal--32-320-75-75-p-170-Adobe-FontSpecific
SIZE 32 75 75
FONTBOUNDINGBOX 99 67 -5 -25
STARTPROPERTIES 16
FOUNDRY "WRI"
FAMILY_NAME "Mathematica5"
WEIGHT_NAME "Medium"
SLANT "R"
SETWIDTH_NAME "Normal"
PIXEL_SIZE 32
POINT_SIZE 320
RESOLUTION_X 75
RESOLUTION_Y 75
SPACING "p"
AVERAGE_WIDTH 170
CHARSET_REGISTRY "Adobe"
CHARSET_ENCODING "FontSpecific"
FONT_DESCENT 25
FONT_ASCENT 42
DEFAULT_CHAR 32
ENDPROPERTIES
CHARS 228
STARTCHAR Villa
ENCODING 1
SWIDTH 627 0
DWIDTH 20 0
BBX 18 27 1 -5
BITMAP
002400
006700
009500
010d00
020500
04f300
189280
30f100
7ffc80
900140
10e100
113100
11b900
13f900
120900
120900
129100
121100
121300
111200
1ffe00
02f000
03f000
05f000
0bd000
17d000
000800
ENDCHAR
STARTCHAR Kooz
ENCODING 2
SWIDTH 746 0
DWIDTH 24 0
BBX 22 27 1 -5
BITMAP
040000
02fc00
fd3e00
032e00
0f1740
061b80
059fc0
065100
459700
240900
248200
1e64e0
771830
23f008
660008
94028c
980758
a80180
e80888
280088
280008
240008
240008
240188
0400c4
000028
000010
ENDCHAR
STARTCHAR Andy
ENCODING 3
SWIDTH 1000 0
DWIDTH 32 0
BBX 25 23 2 0
BITMAP
c0000000
80060000
c0060000
00060000
a0060000
a0040000
a0041c00
b807e000
0ffc0000
4fc48000
c084c000
e0848000
a07f0000
00030000
c0018000
a0018000
c0070000
001e0000
40780000
c0e00000
41c00180
c0e01e00
003fe000
ENDCHAR
STARTCHAR Spooky
ENCODING 4
SWIDTH 535 0
DWIDTH 17 0
BBX 19 20 0 0
BITMAP
000200
200400
380c00
140c00
1e3c00
15ec00
0c0c00
880c00
4bf460
2bf480
1b3700
dac400
30cfc0
084400
7c4f00
197c00
38cc00
080c00
180800
000800
ENDCHAR
STARTCHAR space
ENCODING 32
SWIDTH 189 0
DWIDTH 6 0
BBX 0 0 0 0
BITMAP
ENDCHAR
STARTCHAR BckspcKey
ENCODING 33
SWIDTH 1981 0
DWIDTH 63 0
BBX 59 25 2 -4
BITMAP
ffffffffffffffe0
8000000000000020
8000000000000020
8000000000000020
8000000000000020
8000000000000020
8f01e30c70f83c20
88431308888c4620
88221b1104868220
88261b2104868220
8824036180868020
886403c080848020
88c40380608c8020
8fe4038030f08020
8824034008808020
8834032004808020
88141b3104808220
88361b1904808220
882313098c804620
8fc1e30cf8803c20
8000000000000020
8000000000000020
8000000000000020
8000000000000020
ffffffffffffffe0
ENDCHAR
STARTCHAR HomeKey
ENCODING 34
SWIDTH 1603 0
DWIDTH 51 0
BBX 47 25 2 -4
BITMAP
fffffffffffe
800000000002
800000000002
800000000002
800000000002
800060000002
881198c033f2
881308c03202
881204a07202
881204a05202
881204a05202
881204905202
8ff2049093f2
881204909202
881204889202
881204891202
881204891202
88120c851202
881108861202
8810f08613f2
800000000002
800000000002
800000000002
800000000002
fffffffffffe
ENDCHAR
STARTCHAR PgupKey
ENCODING 35
SWIDTH 1444 0
DWIDTH 46 0
BBX 42 25 2 -4
BITMAP
ffffffffffc0
800000000040
800000000040
800000000040
800000000040
800000000040
8003e0000040
8fc63204fc40
886412048640
886c12048240
886802048240
884802048640
88c802048440
8f88f204f840
880812048040
880812048040
880812048040
880c12048040
880611088040
8803f0f08040
800000000040
800000000040
800000000040
800000000040
ffffffffffc0
ENDCHAR
STARTCHAR PgdwnKey
ENCODING 36
SWIDTH 1999 0
DWIDTH 64 0
BBX 60 25 2 -4
BITMAP
fffffffffffffff0
8000000000000010
8000000000000010
8000000000000010
8000000000000010
8000000000000010
8f83e3e10306c110
88c632390704c110
886412090504e110
886c120d8504a110
88680204858cb110
8868020484889110
8848020488889110
8f88f204c8888910
8808120448988910
8808120448d08d10
880c120450508510
8804120c70508710
8806121830708310
8803f3f030608310
8000000000000010
8000000000000010
8000000000000010
8000000000000010
fffffffffffffff0
ENDCHAR
STARTCHAR EndKey
ENCODING 37
SWIDTH 1187 0
DWIDTH 38 0
BBX 34 25 2 -4
BITMAP
ffffffffc0
8000000040
8000000040
8000000040
8000000040
8000000040
8fcc09f840
880e090c40
880a090640
880b090240
8809090240
8809890240
8fc8890240
8808c90240
8808490240
8808690240
8808290240
8808390440
8808190c40
8fc819f840
8000000040
8000000040
8000000040
8000000040
ffffffffc0
ENDCHAR
STARTCHAR FilledHeart
ENCODING 38
SWIDTH 605 0
DWIDTH 19 0
BBX 16 18 2 0
BITMAP
3c3c
7e7e
ffff
ffff
ffff
ffff
ffff
ffff
7ffe
7ffe
3ffc
1ff8
0ff0
07e0
03c0
0180
0180
0080
ENDCHAR
STARTCHAR Euro
ENCODING 39
SWIDTH 500 0
DWIDTH 16 0
BBX 15 22 0 0
BITMAP
01f8
070e
0c06
1c06
1802
3802
3800
7000
7000
fff8
7000
7000
fff0
7000
7000
7000
3800
3800
3802
1c04
0e18
03e0
ENDCHAR
STARTCHAR CapitalOE
ENCODING 40
SWIDTH 889 0
DWIDTH 28 0
BBX 27 21 1 0
BITMAP
01ffff80
070f0180
1c070080
38070080
38070080
78070000
70070200
f0070200
f0070600
f007fe00
f0070600
f0070200
f0070200
70070000
78070000
78070020
38070040
1c070040
1c0700c0
070f8180
01ffff80
ENDCHAR
STARTCHAR OE
ENCODING 41
SWIDTH 722 0
DWIDTH 23 0
BBX 20 15 1 0
BITMAP
078780
18c8c0
307060
607060
603070
e03ff0
e03000
e03000
e03000
e03000
e03800
703810
707c20
386fe0
0f8780
ENDCHAR
STARTCHAR ABar
ENCODING 42
SWIDTH 444 0
DWIDTH 14 0
BBX 13 19 1 0
BITMAP
7fe0
7fe0
0000
0000
0f80
38c0
7060
7060
7060
7060
00e0
0760
1860
7060
e060
e060
f0e0
7f78
3c30
ENDCHAR
STARTCHAR ACup
ENCODING 43
SWIDTH 444 0
DWIDTH 14 0
BBX 14 21 1 0
BITMAP
2020
3020
1860
1fc0
0780
0000
0f80
38c0
7060
7060
7060
00e0
0360
1c60
3060
6060
e060
e060
f0e4
7f78
3c30
ENDCHAR
STARTCHAR CapitalABar
ENCODING 44
SWIDTH 722 0
DWIDTH 23 0
BBX 23 25 0 0
BITMAP
03ff00
03ff00
000000
000000
001000
003800
003800
007c00
005c00
005c00
008e00
008e00
010700
010700
020380
020380
0401c0
07ffc0
0401e0
0c00e0
0800f0
1800f0
380078
7800fc
fc01fe
ENDCHAR
STARTCHAR CapitalACup
ENCODING 45
SWIDTH 722 0
DWIDTH 23 0
BBX 23 28 0 0
BITMAP
030180
030100
018300
01fe00
007c00
000000
000000
001000
003800
003800
007c00
005c00
00de00
008e00
018f00
010700
030700
020380
060380
0401c0
0fffc0
0800e0
0800e0
1800f0
100070
300078
70007c
fc01fe
ENDCHAR
STARTCHAR CAcute
ENCODING 46
SWIDTH 444 0
DWIDTH 14 0
BBX 13 22 1 0
BITMAP
0060
00e0
01c0
0300
0600
0800
0000
0f80
18e0
20f0
6070
4060
c000
c000
c000
c000
c000
e008
7010
7860
3fc0
1f00
ENDCHAR
STARTCHAR CHacek
ENCODING 47
SWIDTH 444 0
DWIDTH 14 0
BBX 13 22 1 0
BITMAP
6020
30c0
1980
0f80
0700
0000
0000
0f80
18e0
20f0
6070
4060
c000
c000
c000
c000
c000
e008
7010
7860
3fc0
1f00
ENDCHAR
STARTCHAR ScriptZero
ENCODING 48
SWIDTH 440 0
DWIDTH 14 0
BBX 14 22 1 -1
BITMAP
00f0
0338
0618
0c1c
1c1c
181c
381c
381c
701c
701c
7038
7038
e038
e038
e070
e070
e060
e0e0
e0c0
6180
7300
3e00
ENDCHAR
STARTCHAR ScriptOne
ENCODING 49
SWIDTH 440 0
DWIDTH 14 0
BBX 13 22 0 0
BITMAP
0018
0078
01f0
0370
0070
0070
0060
00e0
00e0
00e0
00c0
01c0
01c0
01c0
0180
0380
0380
0380
0380
0780
0ff0
fff8
ENDCHAR
STARTCHAR ScriptTwo
ENCODING 50
SWIDTH 440 0
DWIDTH 14 0
BBX 15 22 0 0
BITMAP
01f0
07fc
0c1e
080e
080e
000e
000c
001c
0018
0030
0060
00c0
0180
0300
0600
0c00
1800
3004
7c0c
fff8
fff0
00f0
ENDCHAR
STARTCHAR ScriptThree
ENCODING 51
SWIDTH 519 0
DWIDTH 17 0
BBX 15 22 0 0
BITMAP
0078
01fc
031e
000e
000e
000c
0018
0010
0060
07f8
007c
003c
001c
001c
001c
0018
0018
0030
4020
e040
ff80
7e00
ENDCHAR
STARTCHAR ScriptFour
ENCODING 52
SWIDTH 519 0
DWIDTH 17 0
BBX 14 23 1 -1
BITMAP
0004
000c
001c
003c
0058
0098
01b8
0330
0630
0c70
1860
3060
60e0
c0e0
fffc
fff8
01c0
01c0
0180
0380
0380
0380
0300
ENDCHAR
STARTCHAR ScriptFive
ENCODING 53
SWIDTH 519 0
DWIDTH 17 0
BBX 15 23 1 -1
BITMAP
0002
01fe
03f8
0300
0200
0400
0400
0fc0
0ff0
0070
0038
0018
0018
0018
0018
0018
0010
0030
0020
4060
f180
ff00
7c00
ENDCHAR
STARTCHAR ScriptSix
ENCODING 54
SWIDTH 519 0
DWIDTH 17 0
BBX 17 22 1 0
BITMAP
000780
003f00
00e100
01c000
070000
0e0000
1e0000
1de000
3e3800
7c1c00
780c00
700c00
f00c00
e00c00
e00c00
e00c00
e01800
e01800
601800
703000
386000
1f8000
ENDCHAR
STARTCHAR ScriptSeven
ENCODING 55
SWIDTH 519 0
DWIDTH 17 0
BBX 14 21 4 0
BITMAP
7ffc
fffc
fff8
0010
0020
0040
00c0
0180
0300
0200
0400
0c00
1800
3000
3000
6000
6000
e000
e000
f000
e000
ENDCHAR
STARTCHAR ScriptEight
ENCODING 56
SWIDTH 519 0
DWIDTH 17 0
BBX 16 21 0 0
BITMAP
007e
018f
0307
0607
0607
060e
071c
0738
07e0
01e0
07f0
1c78
3838
701c
601c
e01c
e018
e018
f030
70c0
3f00
ENDCHAR
STARTCHAR ScriptNine
ENCODING 57
SWIDTH 519 0
DWIDTH 17 0
BBX 17 22 -1 0
BITMAP
007c00
018700
020700
060380
0c0380
0c0380
180380
180380
180380
180380
1c0780
1e0f00
0ff700
07e700
000e00
000c00
001c00
003800
007000
41c000
ff0000
fc0000
ENDCHAR
STARTCHAR ODoubleAcute
ENCODING 58
SWIDTH 500 0
DWIDTH 16 0
BBX 14 22 1 0
BITMAP
0318
0338
0770
0ee0
18c0
3100
0000
0fc0
18e0
3070
6038
603c
e01c
e01c
e01c
e01c
e01c
7018
7018
3830
1c60
0780
ENDCHAR
STARTCHAR CapitalODoubleAcute
ENCODING 59
SWIDTH 722 0
DWIDTH 23 0
BBX 21 28 1 0
BITMAP
001180
003b80
007380
00e600
00cc00
011800
01fc00
070700
0e0380
1c01c0
3800e0
7800f0
780070
f00078
f00078
f00078
f00078
f00078
f00078
f00078
700070
780070
7800f0
3800e0
1c01c0
0e0380
070700
01fc00
ENDCHAR
STARTCHAR SHacek
ENCODING 60
SWIDTH 389 0
DWIDTH 12 0
BBX 10 22 1 0
BITMAP
c0c0
6180
3300
1f00
0e00
0000
0000
1e00
3180
6080
6080
6080
7800
3c00
1f00
0f80
03c0
41c0
40c0
60c0
7180
5f00
ENDCHAR
STARTCHAR CapitalSHacek
ENCODING 61
SWIDTH 556 0
DWIDTH 18 0
BBX 15 28 1 0
BITMAP
1808
0430
0760
03e0
01c0
0000
0fcc
1c3c
301c
700c
7004
7004
7802
7c00
3f00
1fc0
07e0
03f8
00fc
003c
001e
800e
800e
400e
600e
701c
7838
47e0
ENDCHAR
STARTCHAR UDoubleAcute
ENCODING 62
SWIDTH 500 0
DWIDTH 16 0
BBX 15 22 0 0
BITMAP
018c
039c
0338
0670
0cc0
1980
0000
0000
f8f8
3838
3838
3838
3838
3838
3838
3838
3838
3838
3838
3c78
1fbe
0f30
ENDCHAR
STARTCHAR CapitalUDoubleAcute
ENCODING 63
SWIDTH 722 0
DWIDTH 23 0
BBX 22 28 0 0
BITMAP
000c40
001ce0
0039c0
007380
00c600
018c00
000000
ff80fc
3e0078
1c0030
1c0030
1c0030
1c0030
1c0030
1c0030
1c0030
1c0030
1c0030
1c0030
1c0030
1c0030
1c0030
1c0030
1c0030
0e0060
0f0040
078180
01fe00
ENDCHAR
STARTCHAR HSlash
ENCODING 64
SWIDTH 516 0
DWIDTH 17 0
BBX 15 22 1 0
BITMAP
0700
0f00
0700
0600
0600
fff0
0c00
0c00
0c38
0c7c
188c
190c
1a1c
1c18
3c38
3838
3038
3030
7072
6064
6078
6030
ENDCHAR
STARTCHAR ScriptCapA
ENCODING 65
SWIDTH 870 0
DWIDTH 28 0
BBX 27 22 1 -1
BITMAP
0003fce0
001fffc0
006039c0
018073c0
0300e380
0601c380
06018380
06038380
02030380
01070f80
003ff780
00660780
000c0780
000c0780
00180780
00180780
80300780
80200780
80400380
c08003e0
ff0003c0
3c000100
ENDCHAR
STARTCHAR ScriptCapB
ENCODING 66
SWIDTH 718 0
DWIDTH 23 0
BBX 23 23 0 -1
BITMAP
003fe0
00c478
03181c
0e300e
1c700e
18700e
38e01c
30e018
30e070
31c1c0
11ff80
09c1f0
01c078
01c07c
03803c
03803c
03003c
060038
0c0070
3000e0
7e03c0
ffff00
9ff800
ENDCHAR
STARTCHAR ScriptCapC
ENCODING 67
SWIDTH 648 0
DWIDTH 21 0
BBX 21 23 0 -2
BITMAP
001f80
00e1e0
038070
070078
0e0038
1c0038
3c0030
3800c0
780000
780000
700000
f00000
f00000
f00000
f00000
f00100
f00180
780180
780380
3c0700
1e0e00
0ffc00
07e000
ENDCHAR
STARTCHAR ScriptCapD
ENCODING 68
SWIDTH 860 0
DWIDTH 28 0
BBX 26 23 1 -1
BITMAP
001fe000
00e47800
03181e00
0e300f00
1c300700
18700780
386007c0
30e003c0
30e003c0
30e003c0
18e003c0
01c003c0
01c003c0
01c00380
01800780
03800780
03800700
03000e00
06001e00
0c003c00
78007000
ff81c000
0fff0000
ENDCHAR
STARTCHAR ScriptCapE
ENCODING 69
SWIDTH 622 0
DWIDTH 20 0
BBX 20 22 0 0
BITMAP
007e00
01c3c0
0781e0
0700e0
0f00c0
0f0000
070000
078000
01e200
01fc00
0f0000
1e0000
3c0040
780060
700070
f00070
f00070
f800f0
7800e0
7c03c0
3f0700
0ff800
ENDCHAR
STARTCHAR ScriptCapF
ENCODING 70
SWIDTH 669 0
DWIDTH 21 0
BBX 27 25 1 -2
BITMAP
00000020
00000020
00ffc0c0
07ffff80
1c0c0000
30180000
60380000
e0300000
c0700000
c0700000
40f03000
63ffc000
00e00000
00e00000
00e00000
01c00000
01c00000
01c00000
03800000
03800000
07000000
07000000
0e000000
18000000
f0000000
ENDCHAR
STARTCHAR ScriptCapG
ENCODING 71
SWIDTH 704 0
DWIDTH 23 0
BBX 22 27 0 -5
BITMAP
0007f0
003838
00701c
01c00c
03800c
078008
0f0010
0e0000
1e0000
3c0000
3c0000
3c07fc
781ff8
781070
780070
7800e0
7801e0
7c03e0
3c06e0
3e1cc0
1ff1c0
07c180
400300
600600
f81c00
7ff800
0fe000
ENDCHAR
STARTCHAR ScriptCapH
ENCODING 72
SWIDTH 876 0
DWIDTH 28 0
BBX 31 24 0 -1
BITMAP
00000006
001f001c
00fe0038
031e0070
0c1e0070
181c0070
303c00e0
703c00e0
e03800e0
603801e0
607801c0
3077ffc0
087e79c0
00700380
00e00380
00e00380
00e00380
01c00780
01c00780
01c00780
03c00780
038003e0
07000380
0c000000
ENDCHAR
STARTCHAR ScriptCapI
ENCODING 73
SWIDTH 650 0
DWIDTH 21 0
BBX 20 22 1 0
BITMAP
000010
01ffe0
030cc0
021800
003800
003000
007000
007000
00f000
00e000
00e000
00e000
01e000
01c000
01c000
01c000
038000
038000
030000
040800
7ff000
9fc000
ENDCHAR
STARTCHAR ScriptCapJ
ENCODING 74
SWIDTH 775 0
DWIDTH 25 0
BBX 29 27 -1 -5
BITMAP
0001fc08
000607f0
001c0200
00300e00
00701c00
00e01c00
00e03800
00e03800
00e03800
00303800
00007000
00007000
00007000
00007000
00007000
00007000
00007000
0000f000
0000e000
2000e000
4000e000
4001c000
c001c000
e0038000
f0070000
7c0e0000
0ff00000
ENDCHAR
STARTCHAR ScriptCapK
ENCODING 75
SWIDTH 796 0
DWIDTH 25 0
BBX 29 23 0 -1
BITMAP
001e00f0
00fe01f0
071e07f0
0c1c0f88
381c1e00
701c3c00
e0383000
e0386000
e038c000
60398000
30778000
007b8000
0073c000
00e1c000
00e1e000
00e0e000
01c0f000
01c0f000
03c07800
03807800
03803c00
07001f00
08001c00
ENDCHAR
STARTCHAR ScriptCapL
ENCODING 76
SWIDTH 749 0
DWIDTH 24 0
BBX 24 25 0 -3
BITMAP
0000fc
000187
000307
000707
000e04
000e00
001e00
001e00
001e00
001e00
001c00
003c00
003c00
003800
003800
007000
007000
006000
00c000
198000
3fc001
7ffc03
c1fffe
001ffe
0001f8
ENDCHAR
STARTCHAR ScriptCapM
ENCODING 77
SWIDTH 1080 0
DWIDTH 35 0
BBX 33 24 1 -1
BITMAP
000c000080
003c000380
003c000700
003c000700
003e000f00
003e000f00
003e001e00
006e001600
004f002e00
004f004e00
00c700ce00
00c7818e00
0087830e00
0183820e00
0183c40e00
0303c80e00
0301d80e00
0701f00e00
0601f00e00
0e01e00e00
0c01e00f00
1c01c00700
3801800780
e000000200
ENDCHAR
STARTCHAR ScriptCapN
ENCODING 78
SWIDTH 822 0
DWIDTH 26 0
BBX 28 23 1 -1
BITMAP
00200030
01e000e0
01e001c0
01e001c0
01f00180
01f00380
01f00300
03780300
033c0600
033c0600
021e0600
060f0400
060f0c00
06078c00
0403cc00
0c03c800
0c01f800
1c00f800
1800f800
38007800
38007800
70007000
c0002000
ENDCHAR
STARTCHAR ScriptCapO
ENCODING 79
SWIDTH 703 0
DWIDTH 22 0
BBX 22 24 0 -1
BITMAP
000f80
003fe0
0001f0
007c78
01e038
03c03c
07001c
0f001c
1e001c
3c001c
3c001c
78001c
78003c
f00038
f00038
f00070
f00070
f000e0
f001e0
7001c0
780380
3c0700
1e1c00
07f000
ENDCHAR
STARTCHAR ScriptCapP
ENCODING 80
SWIDTH 709 0
DWIDTH 23 0
BBX 23 23 0 -1
BITMAP
00ffc0
07d870
1e303c
3c701c
70e00e
60e00e
e1e00e
c1c00e
c1c01c
c3c018
678070
0781c0
07fe00
078000
070000
070000
070000
0e0000
0e0000
1e0000
1c0000
380000
600000
ENDCHAR
STARTCHAR ScriptCapQ
ENCODING 81
SWIDTH 703 0
DWIDTH 22 0
BBX 23 25 0 -2
BITMAP
000f80
003fe0
0001f0
007c78
01e038
03803c
07001c
0e001c
1e001c
3c001c
3c001c
78003c
78003c
f00038
f00078
f00078
f000f0
f1f0f0
f23de0
701fc0
780f80
3c0f80
1e1fe6
07f3f8
0000f0
ENDCHAR
STARTCHAR ScriptCapR
ENCODING 82
SWIDTH 680 0
DWIDTH 22 0
BBX 22 22 0 0
BITMAP
00ffc0
073070
0c6038
38e038
30e038
70c038
e1c078
e1c070
e1c0e0
6381c0
23cf80
13bc00
039e00
070e00
070700
070780
060380
0e03c0
0e01e0
1c00f0
1800fc
700070
ENDCHAR
STARTCHAR ScriptCapS
ENCODING 83
SWIDTH 679 0
DWIDTH 22 0
BBX 22 23 0 -1
BITMAP
000fc0
0070f8
00c03c
00c01c
01c01c
01c018
01e020
01f000
00fc00
007e00
003f80
001fc0
0007e0
0003f0
1001f0
6000f0
6000e0
e000e0
f000c0
f80180
7e0700
1ffc00
07f000
ENDCHAR
STARTCHAR ScriptCapT
ENCODING 84
SWIDTH 678 0
DWIDTH 22 0
BBX 27 22 0 0
BITMAP
00000020
01ff0040
0fffff80
38043e00
601c0000
40180000
c0380000
c0380000
c0780000
60700000
00700000
00f00000
00e00000
00e00000
01e00000
01c00000
01c00000
03c00000
03800000
07800000
07000000
1c000000
ENDCHAR
STARTCHAR ScriptCapU
ENCODING 85
SWIDTH 897 0
DWIDTH 29 0
BBX 30 23 0 -1
BITMAP
0007000c
007f003c
038e0078
0e1e0078
3c1c00f0
783c00f0
f03c00e0
e03801e0
e07801e0
607801c0
607001c0
30f003c0
00e00380
01e00780
01e00f80
01e00b00
01c01700
03c06700
03c0c700
03c30700
03fc07c0
03f00780
01800300
ENDCHAR
STARTCHAR ScriptCapV
ENCODING 86
SWIDTH 892 0
DWIDTH 29 0
BBX 29 23 0 -1
BITMAP
000f0070
00ff01f8
070f0078
1e0f0070
380f0070
700f0060
f00f00e0
e00f00c0
e0070180
60070100
30078300
00078600
00078400
00038800
00039000
0003b000
0003e000
0003c000
0003c000
00038000
00038000
00038000
00060000
ENDCHAR
STARTCHAR ScriptCapW
ENCODING 87
SWIDTH 1202 0
DWIDTH 38 0
BBX 39 22 0 0
BITMAP
000100001e
001e00c03e
01fe01c01e
071e03c01c
1c1e03c01c
781e03c038
f01e03c030
e01e03c060
e00e07c060
600e07c0c0
300f05c180
000f09c100
000f11e200
000710e400
000720ec00
000740f800
0007c0f000
000780f000
000780e000
000700e000
000f00c000
000c018000
ENDCHAR
STARTCHAR ScriptCapX
ENCODING 88
SWIDTH 738 0
DWIDTH 24 0
BBX 23 23 0 -1
BITMAP
00e01e
03f07e
00f01c
00701c
003838
003820
003840
003980
001f00
001c00
001c00
007c00
00ce00
010e00
060e00
0c0f00
1c0700
380780
700780
f003c0
f003c0
f001f0
3800e0
ENDCHAR
STARTCHAR ScriptCapY
ENCODING 89
SWIDTH 797 0
DWIDTH 26 0
BBX 26 25 0 -2
BITMAP
000000c0
00000380
03e00780
05f00f00
00f00f00
00f01e00
00701e00
00703e00
00707c00
00707c00
0070dc00
0071b800
00733800
00763800
007c7000
00787000
0070e000
0020e000
2001c000
4001c000
40038000
e0070000
f00e0000
78380000
1fe00000
ENDCHAR
STARTCHAR ScriptCapZ
ENCODING 90
SWIDTH 865 0
DWIDTH 28 0
BBX 27 27 1 -4
BITMAP
00000020
00000040
00ffffc0
03ffff80
07ffff00
0c001c00
08003800
00007000
0000e000
0000c000
00018000
00030000
00060000
000c0000
000c0000
00180000
00300000
00600000
00e00000
01c00000
03800000
7f000080
9fe00100
03ff0300
00fffe00
003ffc00
0003f800
ENDCHAR
STARTCHAR RightTriangleLeft
ENCODING 91
SWIDTH 600 0
DWIDTH 19 0
BBX 14 21 3 0
BITMAP
0004
0008
0018
0018
0038
0078
0078
00f8
00d8
0198
0398
0318
0618
0e18
0c18
1818
3818
3018
7018
7ff8
fff8
ENDCHAR
STARTCHAR RightTriangleRight
ENCODING 92
SWIDTH 600 0
DWIDTH 19 0
BBX 13 21 3 0
BITMAP
8000
8000
c000
c000
e000
f000
f000
f800
d800
cc00
ce00
c600
c300
c380
c180
c0c0
c0e0
c060
c070
fff0
fff8
ENDCHAR
STARTCHAR DoubleRightTriangle
ENCODING 93
SWIDTH 624 0
DWIDTH 20 0
BBX 19 21 0 0
BITMAP
005000
009000
009000
019000
019800
019800
039c00
039c00
079c00
079e00
0d9e00
0d9b00
1d9b00
199980
199980
319980
3198c0
6198c0
619860
ff9fe0
ff9fe0
ENDCHAR
STARTCHAR Female
ENCODING 94
SWIDTH 675 0
DWIDTH 22 0
BBX 12 21 5 0
BITMAP
0f00
3fc0
70e0
4060
8030
8030
8030
8030
4060
70e0
1f80
0600
0600
0600
0600
0600
3fc0
0600
0600
0600
0600
ENDCHAR
STARTCHAR Male
ENCODING 95
SWIDTH 810 0
DWIDTH 26 0
BBX 19 22 3 0
BITMAP
000020
0001e0
0000e0
0001e0
0001a0
000300
07c600
1fee00
383c00
701800
600c00
e00e00
c00600
c00600
c00600
c00600
e00e00
600c00
701c00
383800
1ff000
07c000
ENDCHAR
STARTCHAR NearlyEquals
ENCODING 96
SWIDTH 644 0
DWIDTH 21 0
BBX 17 23 2 -4
BITMAP
060000
0f0000
060000
000000
000000
000000
000000
ffff80
ffff80
000000
000000
000000
000000
ffff80
ffff80
000000
000000
000000
000000
000000
003000
007800
003000
ENDCHAR
STARTCHAR ScriptA
ENCODING 97
SWIDTH 442 0
DWIDTH 14 0
BBX 14 14 0 0
BITMAP
01f8
0f70
1830
3820
3020
3060
6060
6040
6040
60c0
e3cc
ecf0
f8e0
6180
ENDCHAR
STARTCHAR ScriptB
ENCODING 98
SWIDTH 487 0
DWIDTH 16 0
BBX 14 21 1 0
BITMAP
0600
3e00
0e00
0e00
0e00
0c00
1c00
1c38
1cfc
199c
1a1c
3c1c
381c
3838
3038
3030
7060
6060
6180
ff00
fc00
ENDCHAR
STARTCHAR ScriptC
ENCODING 99
SWIDTH 408 0
DWIDTH 13 0
BBX 13 15 0 -1
BITMAP
01f8
0638
1c10
1810
3000
7000
7000
e000
e000
e000
e020
e060
71c0
7f00
3c00
ENDCHAR
STARTCHAR ScriptD
ENCODING 100
SWIDTH 547 0
DWIDTH 18 0
BBX 17 23 0 -1
BITMAP
000180
000380
000700
000700
000600
000600
000e00
000e00
00fc00
031e00
0c1c00
181c00
101800
301800
703800
607000
e07000
e0b000
e37000
e67200
fc7c00
f87800
606000
ENDCHAR
STARTCHAR ScriptE
ENCODING 101
SWIDTH 409 0
DWIDTH 13 0
BBX 13 14 0 0
BITMAP
01f0
0638
0c38
3830
3070
71c0
7f00
e000
e000
e020
e020
f040
7180
3e00
ENDCHAR
STARTCHAR ScriptF
ENCODING 102
SWIDTH 405 0
DWIDTH 13 0
BBX 17 25 -1 -3
BITMAP
000f80
003180
006080
00c000
01c000
018000
038000
038000
0ff800
030000
070000
070000
060000
060000
0e0000
0e0000
0c0000
0c0000
1c0000
1c0000
180000
380000
300000
600000
c00000
ENDCHAR
STARTCHAR ScriptG
ENCODING 103
SWIDTH 523 0
DWIDTH 17 0
BBX 18 21 -1 -7
BITMAP
003f80
00c7c0
010380
020300
060700
0c0700
1c0e00
181e00
181e00
382e00
385c00
399c00
3e1c00
3c1800
003800
003000
006000
804000
c18000
fe0000
f80000
ENDCHAR
STARTCHAR ScriptH
ENCODING 104
SWIDTH 486 0
DWIDTH 16 0
BBX 16 21 0 0
BITMAP
03c0
0fc0
03c0
0380
0380
0780
0706
071f
067e
0ece
0f0e
0e0c
1e0c
1c1c
1c1c
3818
3838
383a
703c
7038
c020
ENDCHAR
STARTCHAR ScriptI
ENCODING 105
SWIDTH 261 0
DWIDTH 8 0
BBX 8 20 0 0
BITMAP
03
07
06
0c
00
0c
3c
5c
1c
18
18
38
30
30
30
70
64
78
f0
40
ENDCHAR
STARTCHAR ScriptJ
ENCODING 106
SWIDTH 290 0
DWIDTH 9 0
BBX 14 26 -5 -6
BITMAP
000c
001c
0018
0030
0000
0030
00f0
0170
0070
0070
0070
0060
00e0
00e0
00e0
00c0
01c0
01c0
0180
0180
0380
0300
0300
8600
8c00
f000
ENDCHAR
STARTCHAR ScriptK
ENCODING 107
SWIDTH 464 0
DWIDTH 15 0
BBX 14 22 1 0
BITMAP
0300
1f00
0700
0700
0600
0e00
0e00
0e04
0c3c
0c18
1c30
1c40
1b80
3f00
3b80
3b80
33c0
71c0
71e0
60e0
e0f8
8040
ENDCHAR
STARTCHAR ScriptL
ENCODING 108
SWIDTH 273 0
DWIDTH 9 0
BBX 8 21 1 0
BITMAP
07
1f
27
07
06
0e
0c
0c
1c
18
18
38
30
30
70
70
60
e4
e8
f0
c0
ENDCHAR
STARTCHAR ScriptM
ENCODING 109
SWIDTH 732 0
DWIDTH 23 0
BBX 22 14 1 0
BITMAP
1c3c1c
fcf8fc
193b3c
1e3e38
3c3c38
383870
303870
307070
7070e0
6060e0
6060e0
e0e0f8
e0e0e0
808080
ENDCHAR
STARTCHAR ScriptN
ENCODING 110
SWIDTH 476 0
DWIDTH 15 0
BBX 14 14 1 0
BITMAP
0e0c
7c3c
5cfc
1f1c
1e18
1c18
3838
3830
3030
7030
7070
6078
e070
8020
ENDCHAR
STARTCHAR ScriptO
ENCODING 111
SWIDTH 438 0
DWIDTH 14 0
BBX 13 15 0 -1
BITMAP
01e0
0630
0c18
1818
3018
7018
6018
e010
e030
e030
e060
f040
7180
7f00
3c00
ENDCHAR
STARTCHAR ScriptP
ENCODING 112
SWIDTH 483 0
DWIDTH 15 0
BBX 15 22 0 -7
BITMAP
0e00
3e1c
4e3e
0cce
0d0e
1e0e
1c0c
1c0c
181c
1818
3830
3870
70e0
ff80
7e00
7000
6000
6000
e000
e000
c000
8000
ENDCHAR
STARTCHAR ScriptQ
ENCODING 113
SWIDTH 477 0
DWIDTH 15 0
BBX 14 21 0 -7
BITMAP
01f8
023c
0c18
1838
1838
3030
7070
6070
60f0
e1f0
e260
e460
f8e0
60e0
00e0
00e0
00c0
01c0
01c0
0180
0100
ENDCHAR
STARTCHAR ScriptR
ENCODING 114
SWIDTH 389 0
DWIDTH 12 0
BBX 12 15 0 -1
BITMAP
1c10
fcf0
1d10
1e00
3c00
3800
3800
3000
3000
7000
6000
6000
6000
c000
8000
ENDCHAR
STARTCHAR ScriptS
ENCODING 115
SWIDTH 421 0
DWIDTH 13 0
BBX 13 14 0 0
BITMAP
03f0
0c38
1810
3810
3c00
1e00
0f80
07c0
01e0
00f0
0070
4060
e0c0
ff00
ENDCHAR
STARTCHAR ScriptT
ENCODING 116
SWIDTH 316 0
DWIDTH 10 0
BBX 10 20 0 0
BITMAP
0100
0700
0e00
0e00
0e00
1c00
7fc0
1c00
3800
3800
3000
7000
7000
7000
e000
e000
e100
e200
fc00
7000
ENDCHAR
STARTCHAR ScriptU
ENCODING 117
SWIDTH 480 0
DWIDTH 15 0
BBX 15 15 0 -1
BITMAP
0406
fc0e
bc0c
381c
381c
3838
7038
7078
7078
60b0
e130
e270
e47e
f878
e000
ENDCHAR
STARTCHAR ScriptV
ENCODING 118
SWIDTH 465 0
DWIDTH 15 0
BBX 14 14 1 0
BITMAP
303c
f83c
3818
3818
3830
1c20
1c60
1c40
1c80
1c80
1d00
1e00
0c00
1800
ENDCHAR
STARTCHAR ScriptW
ENCODING 119
SWIDTH 645 0
DWIDTH 21 0
BBX 21 15 0 0
BITMAP
081818
783878
f83870
387830
387860
187860
18b840
18b880
193880
1a3900
1e3a00
1c3a00
183c00
383800
203000
ENDCHAR
STARTCHAR ScriptX
ENCODING 120
SWIDTH 549 0
DWIDTH 18 0
BBX 17 15 0 0
BITMAP
030180
0f0f80
038600
038c00
019800
01e000
01c000
01c000
02e000
04e000
18e000
307000
607c00
e03c00
f03000
ENDCHAR
STARTCHAR ScriptY
ENCODING 121
SWIDTH 494 0
DWIDTH 16 0
BBX 16 22 -1 -7
BITMAP
0001
0703
3e07
2e06
0e0e
0c0e
1c1e
1c1e
182c
387c
38dc
3b9c
3f18
3e18
3838
0030
0060
0040
8080
8300
fe00
f800
ENDCHAR
STARTCHAR ScriptZ
ENCODING 122
SWIDTH 500 0
DWIDTH 16 0
BBX 15 14 1 0
BITMAP
1fee
1ff8
2030
0060
00c0
0080
0300
0600
0c00
1800
3802
ff04
9ffc
01f8
ENDCHAR
STARTCHAR ScriptAltL
ENCODING 123
SWIDTH 378 0
DWIDTH 12 0
BBX 11 21 1 0
BITMAP
00c0
0160
0260
0660
04c0
0cc0
0c80
1d00
1a00
1a00
3c00
3800
3000
7000
f000
7000
7000
7000
7400
7800
2000
ENDCHAR
STARTCHAR LogicalNand
ENCODING 124
SWIDTH 611 0
DWIDTH 20 0
BBX 16 22 2 0
BITMAP
7ffe
0000
0000
0000
0000
07e0
0420
0c30
0810
0810
1818
1808
1008
300c
300c
2004
6006
6006
4002
c003
c003
8001
ENDCHAR
STARTCHAR Nand2
ENCODING 125
SWIDTH 782 0
DWIDTH 25 0
BBX 22 29 2 -5
BITMAP
7ffff8
7ffff8
000000
000000
000000
000000
01fe00
01fe00
030300
030300
020300
060180
060180
060180
0c00c0
0c00c0
0c00c0
180060
180060
180060
300070
300030
300030
600038
600018
600018
c0001c
c0000c
c0000c
ENDCHAR
STARTCHAR Nand3
ENCODING 126
SWIDTH 1200 0
DWIDTH 38 0
BBX 35 50 2 -14
BITMAP
3fffffff80
3fffffff80
0000000000
0000000000
0000000000
0000000000
0000000000
0000000000
0000000000
0000000000
0000000000
000ffe0000
000ffe0000
0018070000
0018030000
0018030000
0038038000
0030018000
0030018000
0070018000
006001c000
006000c000
00e000c000
00c000e000
00c0006000
00c0006000
01c0007000
0180003000
0180003000
0380003800
0300001800
0300001800
0700001c00
0600000c00
0600000c00
0e00000e00
0c00000e00
0c00000600
1c00000700
1c00000700
1800000300
3800000380
3800000380
3000000180
70000001c0
70000001c0
60000000c0
e0000000e0
e0000000e0
c000000060
ENDCHAR
STARTCHAR DEL
ENCODING 127
SWIDTH 189 0
DWIDTH 6 0
BBX 0 0 0 0
BITMAP
ENDCHAR
STARTCHAR LogicalNor
ENCODING 128
SWIDTH 611 0
DWIDTH 20 0
BBX 16 21 2 0
BITMAP
7ffe
0000
0000
0000
8001
c003
c003
4002
6006
6006
2004
200c
300c
1008
1018
1818
0810
0810
0c30
0420
07e0
ENDCHAR
STARTCHAR Nor2
ENCODING 129
SWIDTH 782 0
DWIDTH 25 0
BBX 22 28 2 -5
BITMAP
7ffff8
7ffff8
000000
000000
000000
000000
c0000c
c0000c
e0000c
600018
600018
700018
300030
300030
380030
180060
180060
0c0040
0c00c0
0c00c0
060080
060180
060180
020100
030300
030300
01fe00
01fe00
ENDCHAR
STARTCHAR Nor3
ENCODING 130
SWIDTH 1200 0
DWIDTH 38 0
BBX 35 49 2 -14
BITMAP
3fffffff80
3fffffff80
0000000000
0000000000
0000000000
0000000000
0000000000
0000000000
0000000000
0000000000
0000000000
e0000000e0
e0000000e0
e0000000e0
70000001c0
70000001c0
70000001c0
3000000180
3800000380
3800000380
1800000300
1c00000700
1c00000700
0c00000600
0e00000e00
0e00000e00
0600000c00
0700001c00
0700001c00
0300001800
0380003800
0380003800
0180003000
01c0003000
01c0007000
00c0006000
00e0006000
00e000e000
006000c000
006000c000
007001c000
0030018000
0030018000
0038038000
0018030000
0018030000
001c070000
000ffe0000
000ffe0000
ENDCHAR
STARTCHAR LogicalXor
ENCODING 131
SWIDTH 611 0
DWIDTH 20 0
BBX 16 21 2 0
BITMAP
8001
c003
c003
4002
6006
6006
2004
300c
300c
1008
1018
1818
0810
0810
0c30
0420
07e0
0000
0000
0000
7ffe
ENDCHAR
STARTCHAR Xor2
ENCODING 132
SWIDTH 782 0
DWIDTH 25 0
BBX 22 28 2 -5
BITMAP
c0000c
c0000c
e0001c
600018
600018
700038
300030
300030
180020
180060
180060
0c0040
0c00c0
0c00c0
060080
060180
060180
020100
030300
030300
01fe00
01fe00
000000
000000
000000
000000
7ffff8
7ffff8
ENDCHAR
STARTCHAR Xor3
ENCODING 133
SWIDTH 1200 0
DWIDTH 38 0
BBX 35 49 2 -14
BITMAP
c000000060
e0000000e0
e0000000e0
60000000c0
70000001c0
70000001c0
3000000180
3800000380
3800000380
1800000300
1c00000700
1c00000700
0c00000600
0e00000600
0e00000e00
0600000c00
0600000c00
0700001c00
0300001800
0300001800
0380003800
0180003000
0180003000
01c0007000
00c0006000
00c0006000
00e0006000
006000c000
006000c000
007000c000
0070018000
0030018000
0030018000
0038030000
0018030000
0018030000
001c070000
000ffe0000
000ffe0000
0000000000
0000000000
0000000000
0000000000
0000000000
0000000000
0000000000
0000000000
3fffffff80
3fffffff80
ENDCHAR
STARTCHAR ConstantC
ENCODING 134
SWIDTH 520 0
DWIDTH 17 0
BBX 15 14 1 0
BITMAP
01f8
06c6
0b0e
360e
2e00
5c00
5c00
b800
b800
b800
b800
b808
5c30
3fc0
ENDCHAR
STARTCHAR LongEqual
ENCODING 135
SWIDTH 784 0
DWIDTH 25 0
BBX 20 8 3 4
BITMAP
fffff0
fffff0
000000
000000
000000
000000
fffff0
fffff0
ENDCHAR
STARTCHAR Diffd2
ENCODING 136
SWIDTH 500 0
DWIDTH 16 0
BBX 17 22 0 0
BITMAP
000380
000f00
000300
000300
000300
000700
000600
000600
00f600
039e00
0e0c00
1c0c00
380c00
381c00
701800
701800
e03800
e07000
e07200
f1b400
7f3800
3c3000
ENDCHAR
STARTCHAR Expe2
ENCODING 137
SWIDTH 444 0
DWIDTH 14 0
BBX 12 14 1 0
BITMAP
01e0
0630
0c30
1c30
3860
70c0
7180
fe00
e000
e000
e000
e060
7180
3e00
ENDCHAR
STARTCHAR Imagi2
ENCODING 138
SWIDTH 278 0
DWIDTH 9 0
BBX 6 21 2 0
BITMAP
1c
1c
1c
00
00
00
08
f8
30
30
30
70
60
60
60
60
c0
c8
d0
e0
40
ENDCHAR
STARTCHAR Imagj2
ENCODING 139
SWIDTH 278 0
DWIDTH 9 0
BBX 13 28 -4 -7
BITMAP
0038
0038
0038
0000
0000
0000
0008
01f0
0070
0060
0060
0060
00e0
00e0
00c0
00c0
01c0
01c0
0180
0180
0180
0380
0300
0300
0700
e600
cc00
7800
ENDCHAR
STARTCHAR CapitalCAcute
ENCODING 140
SWIDTH 667 0
DWIDTH 21 0
BBX 20 29 1 -1
BITMAP
030300
018600
00ec00
007800
003000
000000
00fe20
0783e0
0e00e0
1c0060
3c0060
780020
780020
700000
f00000
f00000
f00000
f00000
f00000
f00000
f00000
780000
780000
780000
3c0010
1c0020
0e0040
078180
00fe00
ENDCHAR
STARTCHAR CapitalCHacek
ENCODING 141
SWIDTH 667 0
DWIDTH 21 0
BBX 20 29 1 -1
BITMAP
030300
018600
00ec00
007800
003000
000000
00fe20
0783e0
0e00e0
1c0060
3c0060
780020
780020
700000
f00000
f00000
f00000
f00000
f00000
f00000
f00000
780000
780000
780000
3c0010
1c0020
0e0040
078180
00fe00
ENDCHAR
STARTCHAR EBar
ENCODING 142
SWIDTH 444 0
DWIDTH 14 0
BBX 12 19 1 0
BITMAP
7fe0
7fe0
0000
0000
0f80
31c0
20e0
40e0
4070
fff0
c000
c000
c000
e000
e010
7010
7860
3fc0
1f00
ENDCHAR
STARTCHAR ECup
ENCODING 143
SWIDTH 444 0
DWIDTH 14 0
BBX 12 21 1 0
BITMAP
2020
2060
30c0
1fc0
0f00
0000
0f80
31c0
20e0
40e0
4070
fff0
c000
c000
c000
e000
e010
7010
7860
3fc0
1f00
ENDCHAR
STARTCHAR CapitalEBar
ENCODING 144
SWIDTH 611 0
DWIDTH 20 0
BBX 19 25 0 0
BITMAP
03ff00
03ff00
000000
000000
ffff80
1c01c0
1c00c0
1c00c0
1c0040
1c0000
1c0000
1c0100
1c0300
1c0300
1fff00
1c0300
1c0300
1c0100
1c0000
1c0000
1c0020
1c0060
1c0060
1c01c0
ffffc0
ENDCHAR
STARTCHAR CapitalECup
ENCODING 145
SWIDTH 611 0
DWIDTH 20 0
BBX 19 28 0 0
BITMAP
040600
020400
030c00
03f800
00f000
000000
000000
ffffc0
1c01c0
1c00c0
1c00c0
1c0040
1c0000
1c0000
1c0100
1c0100
1c0300
1fff00
1c0300
1c0300
1c0100
1c0000
1c0000
1c0020
1c0060
1c0060
1c01c0
ffffc0
ENDCHAR
STARTCHAR ICup
ENCODING 146
SWIDTH 278 0
DWIDTH 9 0
BBX 9 21 0 0
BITMAP
8080
c100
6300
7f00
3c00
0000
0000
0c00
7c00
1c00
1c00
1c00
1c00
1c00
1c00
1c00
1c00
1c00
1c00
1c00
7f00
ENDCHAR
STARTCHAR CapitalICup
ENCODING 147
SWIDTH 333 0
DWIDTH 11 0
BBX 9 28 1 0
BITMAP
8080
4180
6300
7f00
3e00
0000
0000
3e00
1c00
1c00
1c00
1c00
1c00
1c00
1c00
1c00
1c00
1c00
1c00
1c00
1c00
1c00
1c00
1c00
1c00
1c00
3e00
ff80
ENDCHAR
STARTCHAR LSlash
ENCODING 148
SWIDTH 278 0
DWIDTH 9 0
BBX 10 22 0 0
BITMAP
0800
7800
1800
1800
1800
1840
1980
1f00
1e00
1800
7800
d800
9800
1800
1800
1800
1800
1800
1800
1800
3c00
ff00
ENDCHAR
STARTCHAR CapitalLSlash
ENCODING 149
SWIDTH 611 0
DWIDTH 20 0
BBX 19 21 0 0
BITMAP
ff8000
3e0000
1c0000
1c0000
1c0000
1c0000
1c0000
1c4000
1cc000
1f8000
1e0000
1c0000
7c0000
dc0000
9c0000
1c0000
1c0020
1c0060
1c00c0
1c01c0
ffffc0
ENDCHAR
STARTCHAR Mercury
ENCODING 150
SWIDTH 402 0
DWIDTH 13 0
BBX 10 21 1 0
BITMAP
8040
8040
c0c0
6180
3f00
7380
c0c0
8040
8040
8040
8040
c0c0
6180
3f00
0c00
0c00
0c00
ffc0
0c00
0c00
0c00
ENDCHAR
STARTCHAR Venus
ENCODING 151
SWIDTH 521 0
DWIDTH 17 0
BBX 14 21 1 0
BITMAP
0fc0
3cf0
7018
6008
c00c
8004
8004
8004
8004
c00c
4008
6018
3870
0fc0
0300
0300
0300
3ff0
0300
0300
0300
ENDCHAR
STARTCHAR Earth
ENCODING 152
SWIDTH 535 0
DWIDTH 17 0
BBX 14 21 2 0
BITMAP
0300
0300
0300
3ff0
0300
0300
0300
0fc0
3870
6018
4008
c00c
8004
8004
8004
8004
c00c
4008
6038
3cf0
0fc0
ENDCHAR
STARTCHAR Mars
ENCODING 153
SWIDTH 636 0
DWIDTH 20 0
BBX 17 18 1 0
BITMAP
001f80
002180
000380
000680
1fcc80
307880
603080
c01800
800800
800c00
800c00
800c00
800c00
c00800
401800
603000
1fe000
0f8000
ENDCHAR
STARTCHAR Jupiter
ENCODING 154
SWIDTH 666 0
DWIDTH 21 0
BBX 18 25 2 -4
BITMAP
000040
000040
07c040
1ff040
383840
700c40
600c40
c00640
c00640
c00640
c00640
000640
000640
000640
000c40
000c40
001840
007040
01e040
1fc040
ffffc0
000040
000040
000040
000040
ENDCHAR
STARTCHAR Saturn
ENCODING 155
SWIDTH 572 0
DWIDTH 18 0
BBX 15 21 2 0
BITMAP
7000
7000
7000
ff00
7000
7000
7000
71f8
770c
7c06
7802
7002
7002
7006
7006
7004
700c
7018
7018
7010
7018
ENDCHAR
STARTCHAR Uranus
ENCODING 156
SWIDTH 622 0
DWIDTH 20 0
BBX 17 21 1 0
BITMAP
f0c780
30c600
30c600
30c600
30c600
30c600
3ffe00
30c600
30c600
30c600
30c600
30c600
30c600
f0c780
00c000
03e000
063000
041000
061000
022000
01c000
ENDCHAR
STARTCHAR Neptune
ENCODING 157
SWIDTH 776 0
DWIDTH 25 0
BBX 22 25 2 -4
BITMAP
007800
00fc00
01fe00
013200
383030
7c30f8
de31ec
923124
103020
103020
103020
103020
183060
183060
0c30c0
0fff80
03ff00
003000
003000
003000
07ff80
003000
003000
003000
003000
ENDCHAR
STARTCHAR Pluto
ENCODING 158
SWIDTH 577 0
DWIDTH 18 0
BBX 15 25 2 -4
BITMAP
ffe0
fff8
c00c
c006
c006
c006
c002
c002
c002
c006
c006
c006
c00c
c0f8
fff0
c000
c000
c000
c000
c000
c000
c000
c000
fffe
fffe
ENDCHAR
STARTCHAR udieresis
ENCODING 159
SWIDTH 756 0
DWIDTH 24 0
BBX 22 21 1 0
BITMAP
00fc00
070380
0c00c0
180060
300030
600018
600018
c0000c
c0000c
c0300c
c0780c
c0300c
c0000c
c0000c
600018
600018
300030
180060
0c00c0
070380
00fc00
ENDCHAR
STARTCHAR dagger
ENCODING 160
SWIDTH 380 0
DWIDTH 12 0
BBX 10 14 2 1
BITMAP
c040
c080
c180
c380
c780
cf80
df80
df80
cf80
c780
c380
c180
c080
c040
ENDCHAR
STARTCHAR LastPage
ENCODING 161
SWIDTH 380 0
DWIDTH 12 0
BBX 9 14 2 1
BITMAP
8180
8180
c180
e180
f180
f980
fd80
fd80
f980
f180
e180
c180
8180
8180
ENDCHAR
STARTCHAR SolidLeftTriangle
ENCODING 162
SWIDTH 634 0
DWIDTH 20 0
BBX 17 18 2 0
BITMAP
000080
000380
000f80
003f80
007f80
01ff80
07ff80
1fff80
7fff80
ffff80
1fff80
07ff80
01ff80
00ff80
003f80
000f80
000380
000080
ENDCHAR
STARTCHAR SolidRightTriangle
ENCODING 163
SWIDTH 634 0
DWIDTH 20 0
BBX 17 18 2 0
BITMAP
800000
e00000
f80000
fe0000
ff0000
ffc000
fff000
fffc00
ffff00
ffff80
fffc00
fff000
ffc000
ff8000
fe0000
f80000
e00000
800000
ENDCHAR
STARTCHAR QuarterNote
ENCODING 164
SWIDTH 400 0
DWIDTH 13 0
BBX 11 24 1 -1
BITMAP
0020
0020
0020
0020
0020
0020
0020
0020
0020
0020
0020
0020
0020
0020
0020
0020
0020
0020
3e20
ffa0
ffe0
ffe0
ffc0
3f00
ENDCHAR
STARTCHAR EigthNote
ENCODING 165
SWIDTH 619 0
DWIDTH 20 0
BBX 18 24 1 -1
BITMAP
002000
003000
003c00
002e00
002300
002180
0020c0
002040
002040
002000
002000
002000
002000
002000
002000
002000
002000
002000
3e2000
ffa000
ffe000
ffe000
ffc000
3f0000
ENDCHAR
STARTCHAR BeamedEighthNote
ENCODING 166
SWIDTH 905 0
DWIDTH 29 0
BBX 26 24 2 -1
BITMAP
007fffc0
007fffc0
00400040
00400040
00400040
00400040
00400040
00400040
00400040
00400040
00400040
00400040
00400040
00400040
00400040
00400040
00400040
00400040
3e407c40
ff40ff40
ffc1ffc0
ffc1ffc0
ff81ff80
3e007e00
ENDCHAR
STARTCHAR BeamedSixteenthNote
ENCODING 167
SWIDTH 905 0
DWIDTH 29 0
BBX 26 24 2 -1
BITMAP
007fffc0
007fffc0
00400040
00400040
00400040
007fffc0
007fffc0
00400040
00400040
00400040
00400040
00400040
00400040
00400040
00400040
00400040
00400040
00400040
3e407c40
ff40ff40
ffc1ffc0
ffc1ffc0
ff81ff80
3e007e00
ENDCHAR
STARTCHAR EntityStart
ENCODING 168
SWIDTH 778 0
DWIDTH 25 0
BBX 21 25 2 -4
BITMAP
fffff8
800080
800080
800080
800080
800080
838080
844080
844080
844080
848080
873c80
861080
871080
8b2080
99a080
99c080
98c080
99e280
8e3c80
800080
800080
800080
800080
fffff8
ENDCHAR
STARTCHAR EntityEnd
ENCODING 169
SWIDTH 778 0
DWIDTH 25 0
BBX 21 25 2 -4
BITMAP
fffff8
080008
080008
080008
080008
080008
080008
080008
080008
080008
080008
081808
081808
080008
080008
080008
080008
080008
081808
081c08
080408
080808
081008
080008
fffff8
ENDCHAR
STARTCHAR trademark
ENCODING 170
SWIDTH 674 0
DWIDTH 22 0
BBX 18 19 5 3
BITMAP
0000c0
000180
000380
000300
000600
000c00
001800
003800
007000
006000
00c000
e1c000
f18000
738000
3b0000
3f0000
1e0000
1e0000
0c0000
ENDCHAR
STARTCHAR acute
ENCODING 171
SWIDTH 674 0
DWIDTH 22 0
BBX 21 22 2 0
BITMAP
000008
000018
000030
0000e0
ffff80
8001c0
800340
800740
800640
800c40
881c40
9c1840
9e3840
8e3040
877040
876040
83e040
83c040
81c040
800040
800040
ffffc0
ENDCHAR
STARTCHAR dieresis
ENCODING 172
SWIDTH 364 0
DWIDTH 12 0
BBX 9 11 1 12
BITMAP
ff80
8880
8880
0800
0800
0800
0800
0800
0800
0800
3e00
ENDCHAR
STARTCHAR notequal
ENCODING 173
SWIDTH 364 0
DWIDTH 12 0
BBX 10 11 1 12
BITMAP
0c00
0c00
ccc0
edc0
7f80
0c00
7780
edc0
cc40
0c00
0c00
ENDCHAR
STARTCHAR AE
ENCODING 174
SWIDTH 429 0
DWIDTH 14 0
BBX 11 10 2 12
BITMAP
f3e0
4080
4080
4080
7f80
4080
4080
4080
4080
f3e0
ENDCHAR
STARTCHAR Oslash
ENCODING 175
SWIDTH 552 0
DWIDTH 18 0
BBX 9 22 7 -2
BITMAP
0080
0300
0600
0c00
1800
1800
3000
3000
7000
7000
6000
6000
6000
e000
e000
e000
e000
e000
e000
e000
e000
e000
ENDCHAR
STARTCHAR infinity
ENCODING 176
SWIDTH 552 0
DWIDTH 18 0
BBX 8 23 2 -3
BITMAP
07
07
07
07
07
0e
0e
0c
1c
38
70
c0
70
38
1c
0c
0e
0e
07
07
07
07
07
ENDCHAR
STARTCHAR plusminus
ENCODING 177
SWIDTH 552 0
DWIDTH 18 0
BBX 9 22 7 0
BITMAP
e000
e000
e000
e000
e000
e000
e000
e000
e000
6000
6000
6000
7000
7000
3000
3000
1800
1800
0c00
0600
0300
0080
ENDCHAR
STARTCHAR lessequal
ENCODING 178
SWIDTH 552 0
DWIDTH 18 0
BBX 3 10 7 0
BITMAP
e0
e0
e0
e0
e0
e0
e0
e0
e0
e0
ENDCHAR
STARTCHAR greaterequal
ENCODING 179
SWIDTH 328 0
DWIDTH 10 0
BBX 7 27 2 -5
BITMAP
0e
18
30
30
30
30
30
30
30
30
30
30
60
c0
60
30
30
30
30
30
30
30
30
30
30
18
0e
ENDCHAR
STARTCHAR yen
ENCODING 180
SWIDTH 344 0
DWIDTH 11 0
BBX 8 41 1 -12
BITMAP
03
06
0c
08
18
18
18
18
18
18
18
18
18
18
18
18
18
18
30
20
c0
20
30
18
18
18
18
18
18
18
18
18
18
18
18
18
18
08
0c
06
03
ENDCHAR
STARTCHAR mu
ENCODING 181
SWIDTH 446 0
DWIDTH 14 0
BBX 10 54 2 -19
BITMAP
0040
0180
0300
0200
0600
0600
0400
0c00
0c00
0c00
0c00
0c00
0c00
0c00
0c00
0c00
0c00
0c00
0c00
0c00
0c00
0c00
1800
1800
3000
3000
e000
e000
3000
3000
1800
1800
0c00
0c00
0c00
0c00
0c00
0c00
0c00
0c00
0c00
0c00
0c00
0c00
0c00
0c00
0c00
0400
0600
0600
0200
0300
0180
0040
ENDCHAR
STARTCHAR partialdiff
ENCODING 182
SWIDTH 562 0
DWIDTH 18 0
BBX 15 67 1 -25
BITMAP
0002
000c
0010
0030
0060
00e0
00c0
01c0
01c0
0180
0380
0380
0380
0380
0380
0380
0380
0380
0380
0380
0380
0380
0380
0380
0380
0380
0380
0700
0700
0600
0e00
1c00
3800
e000
3800
1c00
0e00
0600
0700
0700
0380
0380
0380
0380
0380
0380
0380
0380
0380
0380
0380
0380
0380
0380
0380
0380
0380
0180
01c0
01c0
00c0
00e0
0060
0030
0010
000c
0002
ENDCHAR
STARTCHAR summation
ENCODING 183
SWIDTH 822 0
DWIDTH 26 0
BBX 22 13 2 2
BITMAP
040000
0e0000
0c0000
180000
300000
600000
ff8f8c
ff8f8c
600000
300000
180000
0c0000
060000
ENDCHAR
STARTCHAR product
ENCODING 184
SWIDTH 533 0
DWIDTH 17 0
BBX 12 22 2 0
BITMAP
0600
0f00
1f80
3fc0
76e0
c630
8610
0600
0600
0600
0000
0000
0600
0600
0600
0600
0600
0000
0000
0600
0600
0600
ENDCHAR
STARTCHAR pi
ENCODING 185
SWIDTH 822 0
DWIDTH 26 0
BBX 21 13 2 2
BITMAP
000100
000180
0000c0
000060
000060
000030
c7cff8
c7cff8
000030
000060
0000c0
000180
000100
ENDCHAR
STARTCHAR integral
ENCODING 186
SWIDTH 533 0
DWIDTH 17 0
BBX 13 22 2 0
BITMAP
0300
0300
0300
0000
0000
0300
0300
0300
0300
0300
0000
0000
0300
0300
0300
c318
e330
3360
1fc0
0f80
0700
0300
ENDCHAR
STARTCHAR ordfeminine
ENCODING 187
SWIDTH 900 0
DWIDTH 29 0
BBX 25 12 2 2
BITMAP
ffffff80
80000080
80000080
80000080
8c0c1880
8c0c1880
8c0c1880
80000080
80000080
80000080
80000080
ffffff80
ENDCHAR
STARTCHAR ordmasculine
ENCODING 188
SWIDTH 900 0
DWIDTH 29 0
BBX 11 25 9 -4
BITMAP
ffe0
8020
8020
8020
8620
8620
8620
8020
8020
8020
8020
8620
8620
8620
8020
8020
8020
8020
8020
8620
8620
8620
8020
8020
ffe0
ENDCHAR
STARTCHAR Omega
ENCODING 189
SWIDTH 900 0
DWIDTH 29 0
BBX 25 25 2 -4
BITMAP
fe000000
81000000
80800000
80400000
80200000
80100000
83880000
e3c40000
71020000
38010000
1c008000
0e0e6000
030e3000
018e1800
00c00c00
00600600
00301300
00187980
000c3880
00060080
00038080
0001c080
0000e080
00007080
00003f80
ENDCHAR
STARTCHAR ae
ENCODING 190
SWIDTH 364 0
DWIDTH 12 0
BBX 8 12 2 10
BITMAP
18
18
18
ff
ff
18
18
18
18
18
18
18
ENDCHAR
STARTCHAR oslash
ENCODING 191
SWIDTH 189 0
DWIDTH 6 0
BBX 0 0 0 0
BITMAP
ENDCHAR
STARTCHAR questiondown
ENCODING 192
SWIDTH 189 0
DWIDTH 6 0
BBX 0 0 0 0
BITMAP
ENDCHAR
STARTCHAR exclamdown
ENCODING 193
SWIDTH 189 0
DWIDTH 6 0
BBX 0 0 0 0
BITMAP
ENDCHAR
STARTCHAR logicalnot
ENCODING 194
SWIDTH 189 0
DWIDTH 6 0
BBX 0 0 0 0
BITMAP
ENDCHAR
STARTCHAR radical
ENCODING 195
SWIDTH 189 0
DWIDTH 6 0
BBX 0 0 0 0
BITMAP
ENDCHAR
STARTCHAR florin
ENCODING 196
SWIDTH 189 0
DWIDTH 6 0
BBX 0 0 0 0
BITMAP
ENDCHAR
STARTCHAR approxequal
ENCODING 197
SWIDTH 189 0
DWIDTH 6 0
BBX 0 0 0 0
BITMAP
ENDCHAR
STARTCHAR Delta
ENCODING 198
SWIDTH 189 0
DWIDTH 6 0
BBX 0 0 0 0
BITMAP
ENDCHAR
STARTCHAR guillemotleft
ENCODING 199
SWIDTH 189 0
DWIDTH 6 0
BBX 0 0 0 0
BITMAP
ENDCHAR
STARTCHAR guillemotright
ENCODING 200
SWIDTH 189 0
DWIDTH 6 0
BBX 0 0 0 0
BITMAP
ENDCHAR
STARTCHAR ellipsis
ENCODING 201
SWIDTH 189 0
DWIDTH 6 0
BBX 0 0 0 0
BITMAP
ENDCHAR
STARTCHAR nbspace
ENCODING 202
SWIDTH 189 0
DWIDTH 6 0
BBX 0 0 0 0
BITMAP
ENDCHAR
STARTCHAR Agrave
ENCODING 203
SWIDTH 189 0
DWIDTH 6 0
BBX 0 0 0 0
BITMAP
ENDCHAR
STARTCHAR Atilde
ENCODING 204
SWIDTH 189 0
DWIDTH 6 0
BBX 0 0 0 0
BITMAP
ENDCHAR
STARTCHAR Otilde
ENCODING 205
SWIDTH 189 0
DWIDTH 6 0
BBX 0 0 0 0
BITMAP
ENDCHAR
STARTCHAR parenright
ENCODING 206
SWIDTH 189 0
DWIDTH 6 0
BBX 0 0 0 0
BITMAP
ENDCHAR
STARTCHAR oe
ENCODING 207
SWIDTH 189 0
DWIDTH 6 0
BBX 0 0 0 0
BITMAP
ENDCHAR
STARTCHAR endash
ENCODING 208
SWIDTH 189 0
DWIDTH 6 0
BBX 0 0 0 0
BITMAP
ENDCHAR
STARTCHAR emdash
ENCODING 209
SWIDTH 189 0
DWIDTH 6 0
BBX 0 0 0 0
BITMAP
ENDCHAR
STARTCHAR quotedblleft
ENCODING 210
SWIDTH 189 0
DWIDTH 6 0
BBX 0 0 0 0
BITMAP
ENDCHAR
STARTCHAR quotedblright
ENCODING 211
SWIDTH 189 0
DWIDTH 6 0
BBX 0 0 0 0
BITMAP
ENDCHAR
STARTCHAR quoteleft
ENCODING 212
SWIDTH 189 0
DWIDTH 6 0
BBX 0 0 0 0
BITMAP
ENDCHAR
STARTCHAR quoteright
ENCODING 213
SWIDTH 189 0
DWIDTH 6 0
BBX 0 0 0 0
BITMAP
ENDCHAR
STARTCHAR divide
ENCODING 214
SWIDTH 189 0
DWIDTH 6 0
BBX 0 0 0 0
BITMAP
ENDCHAR
STARTCHAR lozenge
ENCODING 215
SWIDTH 189 0
DWIDTH 6 0
BBX 0 0 0 0
BITMAP
ENDCHAR
STARTCHAR ydieresis
ENCODING 216
SWIDTH 189 0
DWIDTH 6 0
BBX 0 0 0 0
BITMAP
ENDCHAR
STARTCHAR Ydieresis
ENCODING 217
SWIDTH 189 0
DWIDTH 6 0
BBX 0 0 0 0
BITMAP
ENDCHAR
STARTCHAR fraction
ENCODING 218
SWIDTH 189 0
DWIDTH 6 0
BBX 0 0 0 0
BITMAP
ENDCHAR
STARTCHAR currency
ENCODING 219
SWIDTH 189 0
DWIDTH 6 0
BBX 0 0 0 0
BITMAP
ENDCHAR
STARTCHAR guilsinglleft
ENCODING 220
SWIDTH 189 0
DWIDTH 6 0
BBX 0 0 0 0
BITMAP
ENDCHAR
STARTCHAR guilsinglright
ENCODING 221
SWIDTH 189 0
DWIDTH 6 0
BBX 0 0 0 0
BITMAP
ENDCHAR
STARTCHAR fi
ENCODING 222
SWIDTH 189 0
DWIDTH 6 0
BBX 0 0 0 0
BITMAP
ENDCHAR
STARTCHAR fl
ENCODING 223
SWIDTH 189 0
DWIDTH 6 0
BBX 0 0 0 0
BITMAP
ENDCHAR
STARTCHAR daggerdbl
ENCODING 224
SWIDTH 189 0
DWIDTH 6 0
BBX 0 0 0 0
BITMAP
ENDCHAR
STARTCHAR periodcentered
ENCODING 225
SWIDTH 189 0
DWIDTH 6 0
BBX 0 0 0 0
BITMAP
ENDCHAR
STARTCHAR quotesinglbase
ENCODING 226
SWIDTH 189 0
DWIDTH 6 0
BBX 0 0 0 0
BITMAP
ENDCHAR
STARTCHAR quotedblbase
ENCODING 227
SWIDTH 189 0
DWIDTH 6 0
BBX 0 0 0 0
BITMAP
ENDCHAR
STARTCHAR perthousand
ENCODING 228
SWIDTH 189 0
DWIDTH 6 0
BBX 0 0 0 0
BITMAP
ENDCHAR
STARTCHAR Acircumflex
ENCODING 229
SWIDTH 189 0
DWIDTH 6 0
BBX 0 0 0 0
BITMAP
ENDCHAR
STARTCHAR Ecircumflex
ENCODING 230
SWIDTH 189 0
DWIDTH 6 0
BBX 0 0 0 0
BITMAP
ENDCHAR
STARTCHAR Aacute
ENCODING 231
SWIDTH 189 0
DWIDTH 6 0
BBX 0 0 0 0
BITMAP
ENDCHAR
STARTCHAR Edieresis
ENCODING 232
SWIDTH 189 0
DWIDTH 6 0
BBX 0 0 0 0
BITMAP
ENDCHAR
STARTCHAR Egrave
ENCODING 233
SWIDTH 189 0
DWIDTH 6 0
BBX 0 0 0 0
BITMAP
ENDCHAR
STARTCHAR Iacute
ENCODING 234
SWIDTH 189 0
DWIDTH 6 0
BBX 0 0 0 0
BITMAP
ENDCHAR
STARTCHAR Icircumflex
ENCODING 235
SWIDTH 189 0
DWIDTH 6 0
BBX 0 0 0 0
BITMAP
ENDCHAR
STARTCHAR Idieresis
ENCODING 236
SWIDTH 189 0
DWIDTH 6 0
BBX 0 0 0 0
BITMAP
ENDCHAR
STARTCHAR Igrave
ENCODING 237
SWIDTH 189 0
DWIDTH 6 0
BBX 0 0 0 0
BITMAP
ENDCHAR
STARTCHAR Oacute
ENCODING 238
SWIDTH 189 0
DWIDTH 6 0
BBX 0 0 0 0
BITMAP
ENDCHAR
STARTCHAR Ocircumflex
ENCODING 239
SWIDTH 189 0
DWIDTH 6 0
BBX 0 0 0 0
BITMAP
ENDCHAR
STARTCHAR apple
ENCODING 240
SWIDTH 189 0
DWIDTH 6 0
BBX 0 0 0 0
BITMAP
ENDCHAR
STARTCHAR Ograve
ENCODING 241
SWIDTH 189 0
DWIDTH 6 0
BBX 0 0 0 0
BITMAP
ENDCHAR
STARTCHAR Uacute
ENCODING 242
SWIDTH 189 0
DWIDTH 6 0
BBX 0 0 0 0
BITMAP
ENDCHAR
STARTCHAR Ucircumflex
ENCODING 243
SWIDTH 189 0
DWIDTH 6 0
BBX 0 0 0 0
BITMAP
ENDCHAR
STARTCHAR Ugrave
ENCODING 244
SWIDTH 189 0
DWIDTH 6 0
BBX 0 0 0 0
BITMAP
ENDCHAR
STARTCHAR dotlessi
ENCODING 245
SWIDTH 189 0
DWIDTH 6 0
BBX 0 0 0 0
BITMAP
ENDCHAR
STARTCHAR circumflex
ENCODING 246
SWIDTH 189 0
DWIDTH 6 0
BBX 0 0 0 0
BITMAP
ENDCHAR
STARTCHAR CurlyQuote
ENCODING 247
SWIDTH 336 0
DWIDTH 11 0
BBX 5 8 3 14
BITMAP
70
f8
f8
78
18
10
20
40
ENDCHAR
STARTCHAR CurlyDblQuote
ENCODING 248
SWIDTH 444 0
DWIDTH 14 0
BBX 13 8 1 14
BITMAP
7070
f8f8
f8f8
7878
1818
1010
2020
4040
ENDCHAR
STARTCHAR CurlyBackQuote
ENCODING 249
SWIDTH 336 0
DWIDTH 11 0
BBX 5 8 3 14
BITMAP
10
20
40
c0
f0
f8
f8
70
ENDCHAR
STARTCHAR CurlyDblBackQuote
ENCODING 250
SWIDTH 444 0
DWIDTH 14 0
BBX 12 8 1 14
BITMAP
1020
2040
4080
c180
f1e0
f9f0
f9f0
70e0
ENDCHAR
STARTCHAR StrikeCircle
ENCODING 251
SWIDTH 600 0
DWIDTH 19 0
BBX 19 18 0 0
BITMAP
03f800
0e0e00
100100
200080
400040
400040
800020
800020
800020
800020
800020
800020
400040
400040
200080
100100
0e0e00
03f800
ENDCHAR
STARTCHAR StrikeSquare
ENCODING 252
SWIDTH 600 0
DWIDTH 19 0
BBX 17 18 1 0
BITMAP
ffff80
800080
800080
800080
800080
800080
800080
800080
800080
800080
800080
800080
800080
800080
800080
800080
800080
ffff80
ENDCHAR
STARTCHAR StrikeTriangle
ENCODING 253
SWIDTH 600 0
DWIDTH 19 0
BBX 17 18 1 0
BITMAP
008000
008000
01c000
014000
036000
022000
063000
041000
0c1800
080800
180c00
100400
300600
200200
600300
400100
c00180
ffff80
ENDCHAR
STARTCHAR MathLogo1
ENCODING 254
SWIDTH 2776 0
DWIDTH 89 0
BBX 90 21 1 0
BITMAP
07e003f00000000000000000
00e007800000000000000000
00e0078010100161986c3f80
01e00b801839c31e0783c180
01e00b803820c10c03018080
016013003840808c03018040
017013005800800c03038000
027023005800800c03038000
027023005801800802030000
027047009c01801806030400
043047009c01801806030400
043087010c0180180603f800
043887010c01801ffe030800
083907020c01801806030800
08390603fc0180380e070800
081a06040e0100300e060800
101a0604060300300c060000
101c0608060300300c060080
101c0e08060300300c060100
30180e10070300701c0e0300
fc107ffe1fdfc1fc7f3ffe00
ENDCHAR
STARTCHAR MathLogo2
ENCODING 255
SWIDTH 2981 0
DWIDTH 95 0
BBX 94 19 0 0
BITMAP
000000008080040007c00428
0f801f0081fffdfe1c380874
03803c01c1830c3838181cac
01803801c102043070081cbc
03c05803c202023060082c44
03c05802c0020070c0082c38
02c09804c0060071c0004c00
04c09804c006006180004e00
04c11808e004006180004e00
04e11808e004006300008600
086218106004006300008600
0864381fe00400630001fe00
08643020600c00e300010700
10683020700800c300020700
10783040300800c300120300
10703040300800c180240300
20303080300800c180640380
20207080381801c0e1e80380
f821fff0feff07f87f9f0fe0
ENDCHAR
ENDFONT
